<svg width="27" height="29" viewBox="0 0 27 29" fill="none" xmlns="http://www.w3.org/2000/svg">
<path d="M19.5995 12.3577C23.227 9.30267 30.6891 -1.61605 19.0294 0.307459C13.951 1.09948 7.65546 5.72828 6.15265 11.4988C5.36861 9.95576 4.50348 8.46349 3.56158 7.02948C2.16242 5.0494 -0.61075 6.98316 0.943874 9.0198C5.34869 14.8469 8.40611 21.862 8.40611 28.9338C8.76887 25.4262 9.36556 20.7203 8.01822 16.5339C8.51124 16.9044 8.54695 16.9322 8.89015 17.384C11.2739 21.3442 14.9356 24.6341 19.0294 26.2182C22.7606 27.7458 27.7353 26.8405 25.7144 20.7306C24.6261 17.3927 22.0868 14.4509 19.5995 12.3577Z" fill="#F5A623"/>
</svg>
