<svg width="210" height="31" viewBox="0 0 210 31" fill="none" xmlns="http://www.w3.org/2000/svg">
<path d="M209.806 22.5964C210.133 22.1512 210.037 21.5253 209.592 21.1985L202.338 15.8714C201.893 15.5445 201.267 15.6404 200.94 16.0855C200.613 16.5307 200.709 17.1565 201.154 17.4834L207.602 22.2186L202.867 28.6667C202.54 29.1118 202.636 29.7377 203.081 30.0646C203.526 30.3915 204.152 30.2956 204.479 29.8505L209.806 22.5964ZM0.125174 9.10963C-0.142373 9.59278 0.0324102 10.2013 0.515564 10.4689L8.389 14.8288C8.87215 15.0964 9.48072 14.9216 9.74826 14.4384C10.0158 13.9553 9.84103 13.3467 9.35787 13.0792L2.35926 9.20368L6.23475 2.20507C6.5023 1.72191 6.32752 1.11335 5.84436 0.845802C5.36121 0.578255 4.75265 0.753039 4.4851 1.23619L0.125174 9.10963ZM1.27605 10.5552C1.93947 10.3647 2.5999 10.1782 3.25736 9.99586L2.72276 8.06864C2.05943 8.25264 1.39317 8.44072 0.723953 8.63292L1.27605 10.5552ZM7.16693 8.94982C8.48101 8.61126 9.78316 8.28903 11.0737 7.98267L10.6118 6.03675C9.30874 6.34607 7.99424 6.67136 6.66795 7.01307L7.16693 8.94982ZM15.0272 7.08552C16.352 6.79886 17.6646 6.52901 18.9652 6.27545L18.5826 4.31241C17.2684 4.5686 15.9424 4.84121 14.6042 5.13076L15.0272 7.08552ZM22.9505 5.54259C24.2873 5.31164 25.6115 5.09796 26.9235 4.90092L26.6265 2.9231C25.2999 3.12232 23.9612 3.33835 22.61 3.57179L22.9505 5.54259ZM30.9277 4.34591C32.2761 4.17471 33.6117 4.02109 34.9349 3.88434L34.7293 1.89494C33.3906 2.03328 32.0396 2.18869 30.6758 2.36184L30.9277 4.34591ZM38.9455 3.51789C40.3036 3.41013 41.6488 3.32004 42.9817 3.24684L42.872 1.24985C41.523 1.32394 40.1616 1.41511 38.7873 1.52415L38.9455 3.51789ZM46.987 3.07578C48.3517 3.03419 49.7038 3.01008 51.0439 3.00257L51.0327 1.0026C49.6762 1.01021 48.3075 1.03461 46.9261 1.07671L46.987 3.07578ZM55.0661 3.02958C56.423 3.05541 57.7678 3.09789 59.1013 3.15605L59.1884 1.15795C57.8388 1.09909 56.4776 1.05609 55.1042 1.02995L55.0661 3.02958ZM63.1338 3.381C64.4804 3.47242 65.8158 3.57933 67.1409 3.70066L67.3232 1.70899C65.9829 1.58626 64.6318 1.4781 63.2693 1.3856L63.1338 3.381ZM71.1677 4.11624C72.5121 4.27046 73.8465 4.43887 75.1717 4.6203L75.4429 2.63878C74.1038 2.45544 72.755 2.28521 71.3957 2.12927L71.1677 4.11624ZM79.1569 5.20826C80.4962 5.41984 81.8268 5.64387 83.1496 5.87911L83.4998 3.91C82.1649 3.67261 80.8216 3.44644 79.4689 3.23276L79.1569 5.20826ZM87.1202 6.62204C88.4452 6.88193 89.7632 7.15203 91.0751 7.43108L91.4912 5.47484C90.1696 5.19373 88.8412 4.92148 87.5051 4.65944L87.1202 6.62204ZM95.0308 8.30221C96.349 8.60199 97.6619 8.90961 98.9706 9.22372L99.4374 7.27896C98.1217 6.96316 96.801 6.65371 95.4743 6.35201L95.0308 8.30221ZM102.9 10.188C104.212 10.5166 105.521 10.8505 106.828 11.1883L107.329 9.2519C106.018 8.9131 104.704 8.57795 103.386 8.24788L102.9 10.188ZM110.75 12.2135C112.057 12.5586 113.363 12.9062 114.669 13.2549L115.185 11.3226C113.878 10.9737 112.57 10.6256 111.26 10.2797L110.75 12.2135ZM118.59 14.3037C119.897 14.6531 121.204 15.0023 122.513 15.3497L123.026 13.4166C121.719 13.0697 120.413 12.721 119.107 12.3716L118.59 14.3037ZM126.443 16.3841C127.752 16.7254 129.065 17.0636 130.381 17.3972L130.872 15.4586C129.561 15.1262 128.253 14.7892 126.947 14.4487L126.443 16.3841ZM134.326 18.3792C135.641 18.7 136.961 19.0149 138.286 19.3225L138.738 17.3743C137.421 17.0686 136.108 16.7554 134.8 16.4362L134.326 18.3792ZM142.261 20.218C143.582 20.506 144.909 20.7856 146.243 21.0554L146.639 19.0951C145.316 18.8274 143.998 18.5499 142.687 18.2639L142.261 20.218ZM150.246 21.8298C151.578 22.0756 152.918 22.3105 154.267 22.5333L154.593 20.56C153.257 20.3393 151.929 20.1066 150.609 19.863L150.246 21.8298ZM158.289 23.1567C159.629 23.3503 160.978 23.5311 162.337 23.6979L162.58 21.7128C161.236 21.5478 159.901 21.3689 158.576 21.1772L158.289 23.1567ZM166.396 24.1501C167.737 24.2842 169.089 24.4039 170.452 24.5081L170.605 22.514C169.258 22.4109 167.921 22.2926 166.595 22.16L166.396 24.1501ZM174.537 24.7715C175.883 24.8419 177.24 24.8968 178.609 24.9351L178.665 22.9359C177.312 22.8981 175.972 22.8438 174.642 22.7742L174.537 24.7715ZM182.688 24.9991C184.042 25.0036 185.409 24.9916 186.788 24.962L186.745 22.9625C185.383 22.9917 184.033 23.0036 182.695 22.9991L182.688 24.9991ZM190.847 24.8253C192.2 24.7632 193.565 24.684 194.943 24.5869L194.803 22.5918C193.441 22.6878 192.092 22.766 190.755 22.8274L190.847 24.8253ZM198.992 24.2529C200.336 24.126 201.691 23.982 203.06 23.8201L202.825 21.834C201.472 21.994 200.132 22.1363 198.804 22.2617L198.992 24.2529ZM207.102 23.295C207.782 23.1987 208.465 23.0981 209.151 22.9929L208.849 21.016C208.17 21.12 207.494 21.2195 206.822 21.3147L207.102 23.295Z" fill="#00E595"/>
</svg>
