<svg width="184" height="30" viewBox="0 0 184 30" fill="none" xmlns="http://www.w3.org/2000/svg">
<path d="M183.31 21.7724C183.634 21.325 183.534 20.6998 183.087 20.3759L175.797 15.0975C175.35 14.7735 174.724 14.8736 174.4 15.3209C174.077 15.7682 174.177 16.3934 174.624 16.7174L181.104 21.4093L176.412 27.8889C176.088 28.3363 176.188 28.9615 176.635 29.2854C177.082 29.6093 177.708 29.5093 178.031 29.0619L183.31 21.7724ZM0.619509 9.42963C0.357691 9.91592 0.539655 10.5224 1.02594 10.7842L8.95036 15.0508C9.43664 15.3126 10.0431 15.1306 10.3049 14.6443C10.5667 14.158 10.3848 13.5516 9.89848 13.2898L2.85455 9.49727L6.64706 2.45334C6.90888 1.96706 6.72691 1.36061 6.24063 1.09879C5.75435 0.83697 5.14789 1.01893 4.88608 1.50522L0.619509 9.42963ZM1.78739 10.8615C2.43836 10.6662 3.08599 10.4756 3.73035 10.2897L3.17601 8.36811C2.52479 8.55597 1.87034 8.74853 1.21261 8.94588L1.78739 10.8615ZM7.55752 9.23011C8.85802 8.88527 10.145 8.55968 11.419 8.25272L10.9505 6.30837C9.66165 6.61891 8.35993 6.94822 7.04491 7.29692L7.55752 9.23011ZM15.2735 7.37164C16.5924 7.08662 17.8973 6.82169 19.1886 6.57609L18.8149 4.61131C17.5072 4.86003 16.1861 5.12827 14.8511 5.41677L15.2735 7.37164ZM23.0689 5.88895C24.4008 5.67069 25.7183 5.47304 27.0219 5.29515L26.7515 3.31352C25.4301 3.49383 24.0949 3.69413 22.7454 3.91528L23.0689 5.88895ZM30.9562 4.8129C32.284 4.66869 33.5975 4.54489 34.8975 4.44056L34.7375 2.44697C33.4189 2.5528 32.0867 2.67836 30.7402 2.8246L30.9562 4.8129ZM38.8732 4.17895C40.2055 4.11062 41.5237 4.06251 42.8286 4.03351L42.7841 2.034C41.46 2.06343 40.1225 2.11225 38.7708 2.18158L38.8732 4.17895ZM46.7936 4.00332C48.1327 4.01269 49.4583 4.04178 50.771 4.08932L50.8434 2.09063C49.5115 2.0424 48.1665 2.01288 46.8076 2.00337L46.7936 4.00332ZM54.7295 4.28975C56.0576 4.37604 57.3731 4.48059 58.6771 4.60201L58.8625 2.61062C57.5404 2.48752 56.2063 2.38149 54.8592 2.29396L54.7295 4.28975ZM62.6356 5.02511C63.9589 5.18457 65.271 5.36051 66.573 5.55141L66.8632 3.57257C65.5448 3.37927 64.2157 3.20105 62.8748 3.03948L62.6356 5.02511ZM70.4926 6.1748C71.8046 6.39942 73.1073 6.6381 74.4017 6.8892L74.7826 4.9258C73.4745 4.67205 72.1574 4.43071 70.8301 4.20348L70.4926 6.1748ZM78.3032 7.68709C79.6048 7.9665 80.8991 8.25708 82.1874 8.55711L82.641 6.60924C81.3423 6.30679 80.0367 6.01366 78.7229 5.73164L78.3032 7.68709ZM86.0579 9.48946C87.3493 9.81027 88.6358 10.139 89.9187 10.4738L90.4237 8.53862C89.1342 8.20207 87.8401 7.8714 86.5401 7.54846L86.0579 9.48946ZM93.7757 11.4998C95.0612 11.8474 96.3443 12.1995 97.6262 12.5541L98.1595 10.6265C96.8749 10.2712 95.588 9.91807 94.2979 9.56913L93.7757 11.4998ZM101.475 13.6252C102.758 13.9836 104.042 14.3431 105.326 14.7011L105.863 12.7746C104.579 12.4167 103.297 12.0578 102.013 11.699L101.475 13.6252ZM109.183 15.7695C110.468 16.1224 111.755 16.4725 113.047 16.8177L113.563 14.8855C112.277 14.5417 110.994 14.193 109.713 13.8409L109.183 15.7695ZM116.923 17.834C118.215 18.1655 119.512 18.4905 120.815 18.807L121.287 16.8635C119.993 16.5492 118.705 16.2264 117.42 15.8968L116.923 17.834ZM124.725 19.7253C126.025 20.0193 127.331 20.3035 128.646 20.5759L129.052 18.6175C127.75 18.3477 126.455 18.0662 125.167 17.7747L124.725 19.7253ZM132.587 21.3508C133.898 21.5943 135.219 21.8249 136.55 22.0408L136.87 20.0666C135.555 19.8532 134.249 19.6253 132.952 19.3844L132.587 21.3508ZM140.535 22.6375C141.852 22.8178 143.179 22.9828 144.519 23.1308L144.739 21.1429C143.417 20.9969 142.106 20.8341 140.806 20.656L140.535 22.6375ZM148.522 23.5181C149.851 23.6282 151.192 23.7208 152.547 23.7945L152.656 21.7974C151.32 21.7248 149.998 21.6335 148.687 21.5249L148.522 23.5181ZM156.568 23.9551C157.894 23.9889 159.232 24.004 160.585 23.9991L160.577 21.9991C159.245 22.0039 157.925 21.9891 156.619 21.9558L156.568 23.9551ZM164.62 23.9255C165.947 23.8819 167.287 23.8187 168.642 23.7349L168.519 21.7387C167.183 21.8214 165.862 21.8836 164.554 21.9266L164.62 23.9255ZM172.643 23.4301C173.971 23.3101 175.311 23.17 176.667 23.0091L176.431 21.023C175.094 21.1818 173.772 21.3199 172.463 21.4382L172.643 23.4301ZM180.64 22.4824C181.309 22.3845 181.982 22.2815 182.658 22.1733L182.342 20.1984C181.675 20.3052 181.011 20.4069 180.35 20.5034L180.64 22.4824Z" fill="#BABEE3"/>
</svg>
