<svg width="31" height="30" viewBox="0 0 31 30" fill="none" xmlns="http://www.w3.org/2000/svg">
<g clip-path="url(#clip0)">
<path fill-rule="evenodd" clip-rule="evenodd" d="M0.5 0H30.5V30H0.5V0Z" fill="#D94F00"/>
<path fill-rule="evenodd" clip-rule="evenodd" d="M17.5685 5.81738H25.2591V13.4317H17.5685V5.81738ZM8.2711 17.2832V18.0281H9.59657V21.9689H10.5105V17.998H11.7446V17.2531L8.2711 17.2837V17.2832ZM7.58848 18.2067V17.4618C6.85526 17.1342 6.01206 17.0352 5.14872 17.4618C3.73288 18.0873 3.68228 21.1847 5.09864 21.7903C5.91189 22.1975 7.6081 22.0087 7.77902 21.6511V19.199H6.09261V19.8444H6.83513V21.1352C4.39536 22.3067 3.94356 16.6776 7.58848 18.2067ZM13.2312 19.8046H14.1043C14.8272 19.8347 15.0183 21.1847 14.0744 21.1745H13.2312V19.8046ZM13.2312 17.9087H14.1043C14.8272 18.0378 14.5665 19.1 14.0744 19.1296H13.2312V17.9087ZM12.3276 17.1842V21.9291H14.727C15.9518 21.4924 16.0024 19.6164 14.727 19.4174C15.9017 19.2888 15.9622 17.1541 13.9339 17.1541L12.3276 17.1842ZM16.5642 18.5143V19.2189C17.2066 19.0403 18.6023 18.5439 18.4716 19.5965C17.2468 19.5169 16.4135 19.7352 16.273 20.4893C16.0422 22.1179 17.8091 22.2766 18.5522 21.4725V21.8597H19.3954V19.0005C19.1847 18.0771 17.7895 17.9582 16.5642 18.5143ZM17.2768 20.3511C17.4678 20.1026 18.0802 20.1123 18.4918 20.2317V20.8572C17.8195 21.5715 16.7351 21.2444 17.2773 20.3505L17.2768 20.3511ZM21.1427 19.3582C21.3637 19.1199 22.5384 18.673 22.7191 19.3582V21.8796H23.6625V19.2092C23.4617 18.097 22.3871 17.8985 21.0823 18.6531V18.2363H20.189V21.8995H21.1324L21.1427 19.3582ZM26.6243 18.1965L25.3897 19.8342L26.695 21.8495L27.8295 21.8199L26.394 19.8842L27.689 18.2261L26.6248 18.1965H26.6243ZM24.3658 16.9949H25.2993V21.8495H24.3653V16.9954L24.3658 16.9949Z" fill="white"/>
<path fill-rule="evenodd" clip-rule="evenodd" d="M17.5684 5.81738H25.259V13.4317H17.5684V5.81738Z" fill="white"/>
</g>
<defs>
<clipPath id="clip0">
<rect width="30" height="30" fill="white" transform="translate(0.5)"/>
</clipPath>
</defs>
</svg>
