<svg width="51" height="50" viewBox="0 0 51 50" fill="none" xmlns="http://www.w3.org/2000/svg">
<path d="M36.9368 41.1936C36.9195 41.0859 36.9641 40.9776 37.0522 40.9134C37.1404 40.8491 37.2572 40.8399 37.3544 40.8894C39.0111 41.7322 40.7513 42.3997 42.5467 42.881C42.6452 42.9074 42.7503 42.8804 42.8239 42.8098C43.6042 42.0607 44.3353 41.262 45.0127 40.4187C45.0775 40.3376 45.0945 40.2283 45.0574 40.1314C44.3847 38.3861 43.5304 36.7163 42.5087 35.1496C42.4491 35.0583 42.4458 34.9413 42.5001 34.8468C42.5545 34.7523 42.6573 34.6963 42.7662 34.7019C43.2358 34.7265 43.704 34.7387 44.1707 34.7387C45.6022 34.7385 47.0314 34.6225 48.4443 34.392C48.5444 34.3756 48.6288 34.3085 48.6672 34.2147C49.0614 33.2495 49.3944 32.2605 49.6641 31.2534C49.6908 31.1532 49.6623 31.0464 49.5895 30.9727C48.2406 29.6135 46.7494 28.4034 45.1416 27.3633C45.0501 27.304 44.9995 27.1984 45.0108 27.09C45.0221 26.9815 45.0934 26.8886 45.1952 26.8495C47.012 26.1519 48.747 25.2575 50.3693 24.1825C50.4535 24.1265 50.5028 24.0309 50.4997 23.9298C50.4663 22.9297 50.3734 21.9325 50.2213 20.9435C50.2055 20.8413 50.1367 20.7551 50.0405 20.7171C48.2166 19.9979 46.319 19.482 44.382 19.1787C44.2743 19.1618 44.1852 19.0858 44.1514 18.9821C44.1176 18.8784 44.1449 18.7645 44.222 18.6874C45.6326 17.2779 46.8808 15.7148 47.9433 14.0273C47.9971 13.9416 48.0026 13.8342 47.958 13.7433C47.5057 12.8249 46.9973 11.9351 46.4358 11.0791L46.4233 11.103C44.3743 11.1712 42.34 11.4753 40.3607 12.0094L40.2794 12.0315C40.1744 12.0604 40.062 12.0277 39.9889 11.9469C39.9159 11.8661 39.8945 11.7511 39.9338 11.6495C39.9437 11.6232 39.9539 11.5969 39.9638 11.5707C40.6832 9.6792 41.1852 7.71199 41.4601 5.70702C41.5127 5.68531 41.5658 5.6649 41.6186 5.64356C40.7548 4.91459 39.8428 4.24478 38.8887 3.63871L38.8823 3.64257C38.8868 3.7547 38.8248 3.85895 38.7241 3.90854C36.9611 4.78443 35.3005 5.85271 33.7725 7.09386L33.707 7.1472C33.6228 7.21632 33.5068 7.23211 33.4072 7.188C33.3076 7.14389 33.2414 7.04742 33.236 6.93862C33.2345 6.91048 33.233 6.88252 33.2314 6.85438C33.1229 4.89511 32.7988 2.95376 32.265 1.06551C32.2366 0.965423 32.2647 0.857793 32.3386 0.784467C32.3597 0.763314 32.381 0.742162 32.4018 0.720642C31.2843 0.401113 30.1458 0.160309 28.9947 0L28.9837 0.0200485C29.0612 0.124992 29.0569 0.269414 28.9732 0.369518C27.723 1.88319 26.6435 3.53014 25.7544 5.28048L25.7163 5.35553C25.6675 5.45284 25.568 5.51437 25.4591 5.5146C25.3503 5.51484 25.2505 5.45373 25.2013 5.35663L25.163 5.28158C24.265 3.53034 23.1761 1.88377 21.9161 0.371909C21.85 0.293139 21.8311 0.184987 21.8666 0.0884709C21.8756 0.0643759 21.885 0.0404649 21.8933 0.0163699C20.7546 0.180866 19.6287 0.424178 18.5237 0.744554L18.522 0.759636C18.6265 0.827163 18.6747 0.954988 18.6408 1.07471C18.1114 2.97017 17.7933 4.91839 17.6923 6.88381L17.6879 6.96805C17.6829 7.07687 17.6169 7.17357 17.5175 7.21803C17.418 7.26249 17.302 7.24711 17.2176 7.17828L17.1521 7.12531C15.624 5.89379 13.9647 4.83457 12.2043 3.96684C12.1119 3.92169 12.0508 3.8304 12.0443 3.72773C12.0432 3.71284 12.0423 3.69794 12.0414 3.68304C11.0854 4.29512 10.172 4.9714 9.30761 5.7072C9.35819 5.72725 9.40896 5.74656 9.45935 5.76716C9.74176 7.7709 10.2512 9.73602 10.9777 11.6246L11.0081 11.7034C11.0478 11.8048 11.027 11.9201 10.9542 12.0011C10.8814 12.0822 10.7691 12.1153 10.6639 12.0867L10.5824 12.065C8.63218 11.5466 6.62943 11.2511 4.61258 11.1841C4.59511 11.1517 4.57855 11.119 4.56108 11.0865C3.9588 12.0056 3.41778 12.9636 2.94157 13.9539C2.96161 13.9539 2.98166 13.9519 3.00171 13.9514C4.07452 15.6675 5.33895 17.256 6.77065 18.6865L6.83042 18.7461C6.90793 18.8227 6.93566 18.9364 6.90209 19.0401C6.86852 19.1437 6.77938 19.2196 6.67169 19.2363L6.58837 19.2495C4.65657 19.5595 2.76474 20.0811 0.947016 20.8048C0.850838 20.8432 0.782275 20.9298 0.766948 21.0322C0.618189 22.0257 0.529068 23.0272 0.499947 24.0313C0.497213 24.1325 0.546897 24.2279 0.63139 24.2835C2.25455 25.3491 3.98918 26.2344 5.80446 26.9235C5.90638 26.9622 5.97792 27.0549 5.98957 27.1633C6.00122 27.2717 5.951 27.3775 5.85964 27.437C4.25945 28.4809 2.776 29.6936 1.4348 31.0542C1.36205 31.1281 1.33404 31.235 1.36123 31.3351C1.63492 32.3447 1.97219 33.3361 2.37101 34.3032C2.40985 34.3969 2.49462 34.4638 2.59486 34.4797C3.97134 34.6985 5.36291 34.8084 6.75667 34.8086C7.25696 34.8086 7.75909 34.7946 8.26306 34.7665C8.37197 34.7604 8.47507 34.816 8.52983 34.9103C8.58459 35.0046 8.58172 35.1217 8.52241 35.2133C7.50833 36.7807 6.66166 38.4504 5.9963 40.1947C5.95936 40.2916 5.97674 40.4009 6.04191 40.4816C6.72379 41.3253 7.45958 42.124 8.24467 42.8727C8.31856 42.943 8.42378 42.9696 8.52222 42.943C10.3126 42.4548 12.0471 41.7813 13.6979 40.9335C13.7949 40.8837 13.9116 40.8925 14 40.9564C14.0884 41.0203 14.1334 41.1284 14.1165 41.2361C13.8316 43.0531 13.7353 44.8947 13.8292 46.7316C13.8345 46.8348 13.894 46.9275 13.9857 46.9751C14.9678 47.4855 15.9828 47.9297 17.0241 48.3049C17.1207 48.3395 17.2283 48.3209 17.3077 48.256C18.7257 47.093 20.0201 45.787 21.1703 44.3585C21.2386 44.2735 21.3489 44.2342 21.4556 44.2566C21.5623 44.2791 21.6474 44.3595 21.6757 44.4648C22.1505 46.228 22.8051 47.9379 23.629 49.5674C23.6754 49.6591 23.7668 49.7195 23.8693 49.7262C24.4088 49.7611 24.9527 49.779 25.5009 49.7799C26.0772 49.7799 26.6485 49.7604 27.2148 49.7216C27.3175 49.7145 27.4089 49.6536 27.455 49.5616C28.2731 47.9285 28.9214 46.2157 29.3896 44.4501C29.4176 44.3447 29.5023 44.2639 29.609 44.241C29.7157 44.2181 29.8261 44.2571 29.8948 44.3418C31.0514 45.7671 32.3519 47.0692 33.7758 48.2275C33.8554 48.2921 33.963 48.3102 34.0594 48.2753C35.0979 47.8971 36.11 47.4501 37.089 46.9372C37.1805 46.8892 37.2398 46.7962 37.2447 46.693C37.3321 44.8541 37.2289 43.0112 36.9368 41.1936ZM45.9647 31.3998C46.1652 31.5666 46.06 31.8944 45.7992 31.9124C45.2578 31.9492 44.7136 31.968 44.1664 31.9687C43.7489 31.9687 43.3288 31.9579 42.9089 31.9362C41.8629 31.8815 40.8216 31.7587 39.7916 31.5683C39.731 31.5571 39.6756 31.5267 39.6336 31.4815C38.834 30.6267 37.978 29.8264 37.0715 29.086C36.9793 29.0112 36.9426 28.8874 36.9793 28.7745C37.016 28.6617 37.1185 28.5831 37.237 28.5768C38.4053 28.5073 39.5676 28.3598 40.7163 28.1354C40.7768 28.1235 40.8395 28.1313 40.8952 28.1577C42.7141 29.0221 44.4173 30.1113 45.9651 31.3996L45.9647 31.3998ZM43.9525 21.9137C44.905 22.0629 45.8476 22.2692 46.7753 22.5316C47.0268 22.6028 47.063 22.9452 46.8322 23.0675C45.053 24.009 43.1629 24.724 41.2061 25.1958C41.1461 25.2101 41.0831 25.2047 41.0264 25.1806C39.9476 24.7243 38.8394 24.3408 37.7094 24.0326C37.5949 24.0018 37.5111 23.9038 37.4987 23.7859C37.4862 23.668 37.5476 23.5546 37.6531 23.5005C38.6927 22.9625 39.6951 22.3555 40.6537 21.6836C40.7041 21.6483 40.7645 21.6299 40.8261 21.6312C41.8733 21.6573 42.9176 21.7516 43.9525 21.9137ZM44.1497 14.5834C42.9098 16.1617 41.4761 17.5778 39.8825 18.7981C39.8335 18.8354 39.7739 18.856 39.7124 18.8572C38.5282 18.8801 37.347 18.983 36.1768 19.1654C36.0597 19.1841 35.9432 19.1288 35.8837 19.0263C35.8241 18.9237 35.8338 18.7951 35.9081 18.7027C36.6263 17.8015 37.2844 16.8539 37.8782 15.8663C37.9097 15.8137 37.957 15.7725 38.0134 15.7486C39.8917 14.9568 41.8634 14.4085 43.8808 14.1169C44.1383 14.0796 44.311 14.3781 44.1497 14.5834ZM33.0743 11.6068C33.0815 11.5459 33.1081 11.4889 33.1501 11.4442C34.5255 9.98103 36.0787 8.69578 37.7734 7.61843C37.9941 7.47809 38.2744 7.68078 38.2104 7.93442C37.7183 9.88138 36.9845 11.7591 36.026 13.5237C35.9967 13.5775 35.9509 13.6206 35.8954 13.6466C34.847 14.141 33.8324 14.7044 32.8583 15.3329C32.7589 15.3974 32.6301 15.3941 32.534 15.3247C32.438 15.2552 32.3945 15.1339 32.4246 15.0193C32.7162 13.8973 32.9332 12.7574 33.0743 11.6068ZM15.4152 9.28154C16.2552 9.95808 17.0487 10.6903 17.7905 11.4733C17.8325 11.5179 17.8592 11.5747 17.8668 11.6355C18.0121 12.7855 18.2333 13.9247 18.529 15.0456C18.5596 15.1601 18.5166 15.2817 18.4208 15.3515C18.325 15.4213 18.1961 15.425 18.0964 15.3608C17.126 14.74 16.1158 14.1837 15.0724 13.6955C15.0169 13.6697 14.9711 13.6268 14.9416 13.5732C13.974 11.8134 13.232 9.93875 12.7331 7.99347C12.668 7.73982 12.9478 7.53603 13.1691 7.67582C13.9479 8.16759 14.6979 8.70372 15.4152 9.28154ZM6.89793 14.6547C6.73552 14.4495 6.90823 14.1496 7.1672 14.1874C9.14808 14.4761 11.0852 15.0106 12.9338 15.7787C12.9904 15.8023 13.0379 15.8434 13.0696 15.8959C13.6699 16.8875 14.3352 17.8383 15.0612 18.742C15.1357 18.8343 15.1458 18.9628 15.0866 19.0655C15.0275 19.1683 14.9112 19.224 14.7941 19.2059C13.6552 19.0332 12.5063 18.9356 11.3546 18.9136C11.2934 18.9126 11.2342 18.8922 11.1854 18.8553C9.58549 17.6407 8.14501 16.2294 6.89793 14.6547ZM4.24325 22.6154C6.20286 22.0546 8.22613 21.7465 10.2639 21.6987C10.3251 21.6974 10.3851 21.7155 10.4353 21.7506C11.3814 22.4078 12.3696 23.002 13.3936 23.5296C13.4993 23.5834 13.561 23.6967 13.5487 23.8147C13.5365 23.9326 13.4529 24.0309 13.3385 24.0619C12.1964 24.3753 11.0768 24.7655 9.98742 25.23C9.93084 25.2542 9.86803 25.2597 9.80809 25.2458C7.85421 24.7864 5.96595 24.0828 4.18788 23.1516C3.95797 23.0306 3.99218 22.6875 4.24325 22.6154ZM8.10911 32.002C7.1533 32.0553 6.19516 32.0517 5.23979 31.991C4.97916 31.9742 4.87192 31.6468 5.07149 31.4789C6.61424 30.184 8.31441 29.0891 10.1316 28.2204C10.1872 28.1938 10.2499 28.1858 10.3104 28.1976C11.4524 28.4153 12.6076 28.557 13.7683 28.6219C13.8866 28.6281 13.989 28.7065 14.0259 28.8191C14.0628 28.9317 14.0266 29.0554 13.935 29.1305C13.0314 29.8741 12.1787 30.6772 11.3824 31.5346C11.3405 31.5798 11.2854 31.6104 11.2249 31.622C10.1957 31.8163 9.15487 31.9433 8.10911 32.002ZM12.4332 38.4703C11.5757 38.9107 10.6926 39.2992 9.78859 39.6337C9.54359 39.7242 9.31239 39.4681 9.42698 39.234C10.31 37.4245 11.4171 35.7332 12.7221 34.2C12.7621 34.1531 12.8161 34.1203 12.8761 34.1064C14.0158 33.8397 15.1365 33.4972 16.2306 33.0809C16.3413 33.0385 16.4666 33.0685 16.5461 33.1564C16.6256 33.2443 16.6429 33.372 16.5896 33.4779C16.0663 34.5249 15.6137 35.6057 15.2348 36.7132C15.2149 36.7716 15.1769 36.822 15.1263 36.8572C14.2647 37.453 13.365 37.9919 12.4332 38.4703ZM19.0133 42.6224C18.413 43.3682 17.7687 44.0775 17.0839 44.7466C16.8972 44.9291 16.5817 44.7898 16.5909 44.5288C16.662 42.5165 16.9869 40.5213 17.558 38.5904C17.5758 38.5318 17.6118 38.4802 17.6607 38.4433C18.5871 37.7399 19.4658 36.9757 20.2909 36.1557C20.3747 36.072 20.5014 36.0483 20.6098 36.0963C20.7182 36.1442 20.7859 36.2538 20.7803 36.3722C20.7278 37.5416 20.7536 38.7131 20.8576 39.879C20.8632 39.9404 20.849 40.002 20.8171 40.0547C20.2723 40.9489 19.6698 41.8066 19.0133 42.6224ZM20.578 10.4232C20.5377 10.3769 20.5132 10.3189 20.5081 10.2577C20.3421 8.25619 20.4273 6.24182 20.7616 4.2615C20.8052 4.004 21.1434 3.93043 21.2889 4.14857C21.8047 4.91959 22.2755 5.71973 22.6991 6.54501C23.1915 7.50458 23.6188 8.49619 23.9781 9.51311C23.9984 9.57096 23.9998 9.63377 23.982 9.69244C23.6473 10.8021 23.3865 11.9327 23.2012 13.0768C23.1827 13.1939 23.094 13.2876 22.978 13.3125C22.8621 13.3374 22.7427 13.2884 22.6778 13.1892C22.0397 12.2218 21.3382 11.2978 20.578 10.4232ZM26.713 43.741C26.466 44.673 26.1632 45.5892 25.8062 46.4847C25.7095 46.7274 25.3648 46.7281 25.2673 46.4857C24.5146 44.6182 23.9995 42.6636 23.7339 40.6677C23.7259 40.6066 23.7377 40.5445 23.7675 40.4906C24.3326 39.4655 24.8284 38.4038 25.2517 37.3125C25.2942 37.2018 25.4004 37.1287 25.5189 37.1285C25.6375 37.1282 25.7439 37.2009 25.7869 37.3114C26.2143 38.4011 26.7142 39.461 27.2832 40.484C27.3132 40.5378 27.3252 40.5998 27.3174 40.6609C27.1833 41.6997 26.9814 42.7286 26.713 43.741ZM27.7456 13.0696C27.5571 11.933 27.294 10.8101 26.958 9.70807C26.9401 9.64959 26.9412 9.58693 26.9611 9.52911C27.6183 7.638 28.5104 5.83689 29.6164 4.16807C29.7609 3.94992 30.0997 4.02092 30.1441 4.27842C30.4839 6.25149 30.5745 8.25943 30.4137 10.2551C30.4088 10.3162 30.3846 10.3742 30.3446 10.4206C29.593 11.2937 28.8996 12.2154 28.2691 13.1796C28.2044 13.2787 28.0855 13.328 27.9697 13.3037C27.8539 13.2793 27.7649 13.1864 27.7456 13.0696ZM30.1919 39.8395C30.2898 38.6802 30.3105 37.5157 30.2539 36.3536C30.2478 36.2353 30.3151 36.1254 30.4233 36.077C30.5315 36.0286 30.6582 36.0517 30.7424 36.1351C31.5759 36.957 32.4634 37.7221 33.3991 38.4254C33.4483 38.4622 33.4846 38.5138 33.5025 38.5726C34.0766 40.4955 34.4078 42.4827 34.4883 44.4878C34.4988 44.7488 34.1843 44.8899 33.9965 44.7085C32.5495 43.3083 31.2851 41.731 30.2335 40.0139C30.2016 39.9616 30.1871 39.9005 30.1923 39.8395H30.1919ZM34.7922 33.0458C35.8879 33.4575 37.0098 33.7955 38.1506 34.0574C38.2107 34.0711 38.2648 34.1038 38.3049 34.1505C39.6156 35.6788 40.729 37.3658 41.619 39.1718C41.7345 39.4062 41.5044 39.6624 41.259 39.5728C39.3679 38.8816 37.5712 37.9556 35.9109 36.8166C35.8601 36.7816 35.8218 36.7313 35.8018 36.6729C35.4189 35.5673 34.9624 34.4886 34.4354 33.444C34.3818 33.3384 34.3987 33.2108 34.4777 33.1227C34.5568 33.0346 34.6818 33.004 34.7926 33.0458H34.7922Z" fill="#182CD1"/>
</svg>
