<svg width="69" height="14" viewBox="0 0 69 14" fill="none" xmlns="http://www.w3.org/2000/svg">
<path d="M11.1062 11.5852C11.1013 11.5549 11.1139 11.5245 11.1387 11.5064C11.1635 11.4883 11.1963 11.4857 11.2236 11.4997C11.6896 11.7367 12.179 11.9244 12.6839 12.0598C12.7116 12.0672 12.7412 12.0596 12.7619 12.0398C12.9813 11.8291 13.1869 11.6044 13.3774 11.3673C13.3957 11.3445 13.4005 11.3137 13.39 11.2865C13.2008 10.7956 12.9606 10.326 12.6732 9.88541C12.6565 9.85974 12.6555 9.82683 12.6708 9.80025C12.6861 9.77367 12.715 9.75793 12.7456 9.75951C12.8777 9.7664 13.0094 9.76985 13.1406 9.76985C13.5432 9.76979 13.9452 9.73718 14.3425 9.67234C14.3707 9.66774 14.3944 9.64886 14.4052 9.62248C14.5161 9.35103 14.6097 9.07287 14.6856 8.78965C14.6931 8.76147 14.6851 8.73144 14.6646 8.71071C14.2853 8.32844 13.8659 7.98811 13.4137 7.69559C13.388 7.67894 13.3737 7.64924 13.3769 7.61874C13.3801 7.58823 13.4001 7.5621 13.4288 7.55111C13.9397 7.3549 14.4277 7.10338 14.8839 6.80105C14.9076 6.78529 14.9215 6.75841 14.9206 6.72998C14.9112 6.44871 14.8851 6.16826 14.8423 5.89011C14.8379 5.86137 14.8185 5.83713 14.7914 5.82644C14.2785 5.62418 13.7448 5.47909 13.2001 5.39378C13.1698 5.38902 13.1447 5.36765 13.1352 5.33849C13.1257 5.30933 13.1334 5.2773 13.1551 5.25561C13.5518 4.8592 13.9028 4.4196 14.2016 3.94502C14.2168 3.92091 14.2183 3.89069 14.2058 3.86515C14.0786 3.60685 13.9356 3.35661 13.7777 3.11586L13.7742 3.12259C13.1979 3.14175 12.6258 3.22729 12.0691 3.37751L12.0463 3.38371C12.0167 3.39185 11.9851 3.38265 11.9646 3.35993C11.944 3.33721 11.938 3.30485 11.9491 3.27627C11.9519 3.26888 11.9547 3.26148 11.9575 3.25413C12.1598 2.72216 12.301 2.1689 12.3783 1.60503C12.3931 1.59893 12.4081 1.59319 12.4229 1.58718C12.18 1.38217 11.9235 1.19379 11.6551 1.02334L11.6533 1.02443C11.6546 1.05597 11.6372 1.08528 11.6089 1.09923C11.113 1.34556 10.646 1.646 10.2163 1.99506L10.1979 2.01006C10.1742 2.02951 10.1416 2.03394 10.1135 2.02154C10.0855 2.00914 10.0669 1.982 10.0654 1.9514C10.065 1.94349 10.0645 1.93563 10.0641 1.92771C10.0336 1.37669 9.94244 0.830711 9.7923 0.299663C9.78431 0.271514 9.79223 0.241244 9.81299 0.220622C9.81894 0.214673 9.82494 0.208724 9.83079 0.202672C9.51651 0.112808 9.19632 0.0450849 8.87257 0L8.86947 0.0056384C8.89129 0.0351527 8.89007 0.0757695 8.86652 0.103922C8.51491 0.529626 8.21133 0.992809 7.96127 1.48507L7.95056 1.50618C7.93683 1.53355 7.90886 1.55085 7.87824 1.55092C7.84762 1.55098 7.81957 1.5338 7.80572 1.50649L7.79496 1.48538C7.54241 0.992866 7.23616 0.529788 6.8818 0.104595C6.8632 0.082442 6.85789 0.0520253 6.86789 0.0248814C6.87042 0.018105 6.87306 0.0113803 6.87539 0.00460383C6.55514 0.0508663 6.23849 0.119295 5.92772 0.209397L5.92726 0.213639C5.95665 0.23263 5.9702 0.268579 5.96067 0.302249C5.81177 0.835325 5.72231 1.38324 5.69391 1.93599L5.69267 1.95968C5.69125 1.99029 5.67271 2.01748 5.64474 2.02999C5.61677 2.04249 5.58415 2.03816 5.5604 2.01881L5.54198 2.00391C5.11222 1.65756 4.64556 1.35966 4.15049 1.11563C4.12449 1.10293 4.10731 1.07726 4.10548 1.04838C4.10517 1.04419 4.10491 1.04 4.10465 1.03581C3.83579 1.20795 3.57892 1.39815 3.33581 1.60508C3.35004 1.61072 3.36432 1.61615 3.37849 1.62195C3.45792 2.18547 3.60118 2.73814 3.80551 3.26929L3.81404 3.29143C3.82524 3.31997 3.81938 3.35237 3.7989 3.37518C3.77842 3.39799 3.74683 3.4073 3.71726 3.39923L3.69434 3.39313C3.14586 3.24735 2.58261 3.16424 2.01539 3.1454C2.01048 3.1363 2.00582 3.12709 2.00091 3.11793C1.83152 3.37644 1.67937 3.64584 1.54544 3.92438C1.55108 3.92438 1.55672 3.92381 1.56236 3.92366C1.86407 4.40629 2.21968 4.85306 2.62232 5.25535L2.63914 5.27211C2.66093 5.29365 2.66873 5.32564 2.65929 5.3548C2.64985 5.38395 2.62478 5.4053 2.59449 5.40997L2.57106 5.41369C2.02777 5.50087 1.49571 5.64756 0.984497 5.85111C0.957448 5.8619 0.938166 5.88625 0.933855 5.91505C0.892018 6.19446 0.866954 6.47612 0.858764 6.75853C0.857995 6.78697 0.871968 6.8138 0.895731 6.82945C1.35222 7.12914 1.84007 7.3781 2.35059 7.57191C2.37926 7.58281 2.39938 7.60887 2.40265 7.63936C2.40593 7.66985 2.39181 7.6996 2.36611 7.71634C1.91608 8.00991 1.49888 8.35096 1.12168 8.73363C1.10122 8.7544 1.09334 8.78448 1.10099 8.81262C1.17796 9.09657 1.27281 9.37538 1.38498 9.64736C1.3959 9.67373 1.41974 9.69254 1.44793 9.69702C1.83505 9.75854 2.22642 9.78946 2.61839 9.78951C2.75909 9.78951 2.90031 9.78556 3.04205 9.77766C3.07268 9.77594 3.10167 9.79158 3.11707 9.81811C3.13247 9.84464 3.13167 9.87757 3.11499 9.90331C2.82979 10.3441 2.59167 10.8137 2.40455 11.3043C2.39416 11.3315 2.39905 11.3623 2.41738 11.385C2.60915 11.6223 2.81608 11.8469 3.03688 12.0574C3.05766 12.0772 3.08725 12.0847 3.11493 12.0772C3.61844 11.9399 4.10628 11.7505 4.57052 11.5121C4.5978 11.498 4.63064 11.5005 4.65549 11.5185C4.68035 11.5365 4.69301 11.5669 4.68826 11.5972C4.60814 12.1082 4.58106 12.6261 4.60746 13.1427C4.60894 13.1717 4.62569 13.1978 4.65148 13.2112C4.92767 13.3547 5.21314 13.4797 5.50598 13.5852C5.53314 13.5949 5.56341 13.5897 5.58574 13.5714C5.98455 13.2444 6.34857 12.877 6.67204 12.4753C6.69127 12.4514 6.72228 12.4403 6.75229 12.4466C6.7823 12.453 6.80622 12.4756 6.81419 12.5052C6.94773 13.0011 7.13181 13.482 7.36355 13.9403C7.37659 13.966 7.40228 13.983 7.43111 13.9849C7.58284 13.9947 7.7358 13.9998 7.88999 14C8.05207 14 8.21274 13.9945 8.37199 13.9836C8.40089 13.9816 8.42658 13.9645 8.43955 13.9386C8.66964 13.4793 8.85196 12.9976 8.98363 12.5011C8.9915 12.4714 9.01534 12.4487 9.04534 12.4423C9.07533 12.4358 9.1064 12.4468 9.12573 12.4706C9.451 12.8714 9.81676 13.2377 10.2172 13.5634C10.2396 13.5816 10.2699 13.5867 10.297 13.5769C10.589 13.4705 10.8737 13.3448 11.149 13.2005C11.1747 13.187 11.1914 13.1609 11.1928 13.1318C11.2174 12.6147 11.1883 12.0964 11.1062 11.5852ZM13.6452 8.83082C13.7016 8.87774 13.672 8.96992 13.5986 8.97499C13.4464 8.98534 13.2933 8.99061 13.1394 8.99082C13.022 8.99082 12.9039 8.98777 12.7858 8.98167C12.4916 8.96631 12.1988 8.93175 11.9091 8.87821C11.892 8.87506 11.8765 8.8665 11.8646 8.85379C11.6398 8.61339 11.399 8.38831 11.1441 8.18008C11.1181 8.15906 11.1078 8.12424 11.1182 8.09249C11.1285 8.06075 11.1573 8.03865 11.1906 8.0369C11.5192 8.01733 11.8461 7.97586 12.1691 7.91275C12.1861 7.9094 12.2038 7.91159 12.2195 7.91901C12.731 8.16212 13.21 8.46843 13.6453 8.83077L13.6452 8.83082ZM13.0793 6.16298C13.3472 6.20493 13.6123 6.26295 13.8732 6.33674C13.9439 6.35676 13.9541 6.45307 13.8891 6.48747C13.3888 6.75225 12.8572 6.95334 12.3069 7.08602C12.29 7.09003 12.2723 7.08853 12.2563 7.08173C11.9529 6.95341 11.6413 6.84555 11.3235 6.75889C11.2913 6.75023 11.2677 6.72265 11.2642 6.6895C11.2607 6.65634 11.278 6.62445 11.3076 6.60924C11.6 6.45792 11.8819 6.28722 12.1515 6.09827C12.1657 6.08832 12.1827 6.08315 12.2 6.08353C12.4945 6.09085 12.7882 6.11739 13.0793 6.16298ZM13.1347 4.1014C12.786 4.5453 12.3828 4.94355 11.9346 5.28675C11.9209 5.29722 11.9041 5.30304 11.8868 5.30336C11.5538 5.30979 11.2216 5.33876 10.8925 5.39006C10.8595 5.39531 10.8268 5.37975 10.81 5.35091C10.7933 5.32207 10.796 5.2859 10.8169 5.25991C11.0189 5.00645 11.204 4.73997 11.371 4.4622C11.3798 4.44742 11.3931 4.43583 11.409 4.42909C11.9372 4.20643 12.4918 4.05221 13.0591 3.97021C13.1315 3.95971 13.1801 4.04367 13.1347 4.1014ZM10.0199 3.26427C10.0219 3.24714 10.0294 3.23112 10.0412 3.21855C10.428 2.80705 10.8649 2.44559 11.3415 2.14259C11.4035 2.10312 11.4824 2.16013 11.4644 2.23146C11.326 2.77902 11.1196 3.3071 10.85 3.80339C10.8418 3.81852 10.8289 3.83062 10.8133 3.83794C10.5185 3.977 10.2331 4.13543 9.95918 4.31219C9.93122 4.33033 9.89498 4.32942 9.86797 4.30989C9.84096 4.29036 9.82873 4.25623 9.8372 4.22399C9.91919 3.90846 9.98022 3.58786 10.0199 3.26427ZM5.05351 2.61032C5.28974 2.80059 5.51292 3.00652 5.72153 3.22672C5.73334 3.23927 5.74086 3.25524 5.743 3.27234C5.78384 3.59578 5.84605 3.91617 5.92922 4.23139C5.93783 4.2636 5.92573 4.29779 5.89878 4.31743C5.87184 4.33707 5.83559 4.33811 5.80756 4.32005C5.53465 4.14544 5.25055 3.98899 4.95709 3.8517C4.94149 3.84443 4.92861 3.83238 4.92031 3.8173C4.64819 3.32238 4.43951 2.79515 4.29921 2.24807C4.28089 2.17673 4.35957 2.11942 4.4218 2.15873C4.64085 2.29704 4.85176 2.44782 5.05351 2.61032ZM2.65812 4.12147C2.61244 4.06374 2.66102 3.97942 2.73385 3.99002C3.29095 4.07122 3.83575 4.22157 4.35564 4.43758C4.37155 4.44421 4.38493 4.45576 4.39382 4.47053C4.56266 4.74941 4.74978 5.01681 4.95393 5.27098C4.97488 5.29691 4.97773 5.33306 4.9611 5.36195C4.94446 5.39084 4.91177 5.40653 4.87882 5.40143C4.55853 5.35287 4.23539 5.32541 3.9115 5.31924C3.8943 5.31895 3.87764 5.31321 3.86391 5.30284C3.41397 4.96125 3.00885 4.56433 2.65812 4.12147ZM1.91152 6.36033C2.46264 6.20259 3.03166 6.11595 3.60475 6.10251C3.62196 6.10213 3.63885 6.10724 3.65296 6.1171C3.91903 6.30192 4.19697 6.46905 4.48496 6.61742C4.51468 6.63255 4.53202 6.66442 4.52858 6.69759C4.52514 6.73077 4.50164 6.7584 4.46944 6.76712C4.14825 6.85526 3.83338 6.96501 3.527 7.09565C3.51109 7.10244 3.49343 7.104 3.47657 7.10009C2.92706 6.97089 2.39601 6.77301 1.89595 6.51111C1.83129 6.47708 1.84091 6.3806 1.91152 6.36033ZM2.99875 9.00018C2.72994 9.01519 2.46048 9.01415 2.19179 8.99708C2.11849 8.99237 2.08833 8.9003 2.14446 8.85307C2.57834 8.48888 3.05649 8.18097 3.56756 7.93665C3.5832 7.92918 3.60082 7.92693 3.61784 7.93023C3.93901 7.99146 4.26389 8.03132 4.59033 8.04957C4.62361 8.05132 4.65239 8.07336 4.66277 8.10503C4.67315 8.1367 4.66299 8.17149 4.6372 8.1926C4.3831 8.40172 4.14326 8.62761 3.91931 8.86874C3.90755 8.88145 3.89204 8.89006 3.87503 8.89331C3.58558 8.94797 3.29286 8.98367 2.99875 9.00018ZM4.21484 10.8193C3.9737 10.9432 3.72533 11.0524 3.47108 11.1465C3.40218 11.172 3.33716 11.0999 3.36939 11.0341C3.61773 10.5252 3.92908 10.0496 4.2961 9.61834C4.30735 9.60516 4.32252 9.59593 4.3394 9.59201C4.65995 9.51702 4.97513 9.42068 5.28282 9.30362C5.31394 9.29169 5.3492 9.30012 5.37156 9.32484C5.39392 9.34956 5.39878 9.38548 5.3838 9.41525C5.23662 9.70971 5.10933 10.0137 5.00276 10.3252C4.99717 10.3416 4.98648 10.3558 4.97224 10.3657C4.72993 10.5332 4.47692 10.6848 4.21484 10.8193ZM6.06542 11.987C5.89659 12.1968 5.71539 12.3963 5.52279 12.5845C5.47029 12.6358 5.38157 12.5966 5.38416 12.5232C5.40415 11.9573 5.49554 11.3961 5.65615 10.8531C5.66115 10.8366 5.67126 10.8221 5.68501 10.8117C5.94557 10.6139 6.19268 10.399 6.42473 10.1684C6.4483 10.1448 6.48393 10.1382 6.51441 10.1516C6.54489 10.1651 6.56395 10.196 6.56238 10.2293C6.5476 10.5581 6.55486 10.8876 6.5841 11.2155C6.58569 11.2328 6.5817 11.2501 6.57272 11.2649C6.41951 11.5164 6.25005 11.7576 6.06542 11.987ZM6.50548 2.9314C6.49414 2.91837 6.48725 2.90206 6.48582 2.88485C6.43915 2.32196 6.46309 1.75544 6.5571 1.1985C6.56936 1.12608 6.66449 1.10539 6.70541 1.16674C6.85046 1.38358 6.98288 1.60861 7.10201 1.84071C7.24049 2.11057 7.36067 2.38945 7.46173 2.67545C7.46744 2.69172 7.46782 2.70938 7.46281 2.72588C7.36869 3.03796 7.29534 3.35592 7.24323 3.67769C7.23802 3.71064 7.21307 3.73699 7.18046 3.74399C7.14784 3.75099 7.11428 3.7372 7.09601 3.70929C6.91656 3.43724 6.71928 3.17737 6.50548 2.9314ZM8.23088 12.3017C8.16141 12.5637 8.07624 12.8214 7.97586 13.0733C7.94865 13.1415 7.85171 13.1417 7.82429 13.0735C7.61261 12.5483 7.46772 11.9986 7.39303 11.4373C7.39078 11.4201 7.3941 11.4027 7.4025 11.3875C7.56142 11.0992 7.70086 10.8006 7.8199 10.4937C7.83186 10.4626 7.86172 10.442 7.89505 10.4419C7.92839 10.4419 7.95834 10.4623 7.97043 10.4934C8.09062 10.7999 8.2312 11.0979 8.39124 11.3856C8.39967 11.4008 8.40304 11.4182 8.40086 11.4354C8.36313 11.7275 8.30635 12.0169 8.23088 12.3017ZM8.52128 3.67567C8.46826 3.35602 8.39427 3.04021 8.29978 2.73028C8.29474 2.71383 8.29505 2.69621 8.30066 2.67995C8.48549 2.1481 8.73637 1.64156 9.04741 1.17222C9.08807 1.11087 9.18336 1.13084 9.19582 1.20326C9.29138 1.75816 9.31686 2.32287 9.27166 2.88412C9.27028 2.90131 9.26346 2.91761 9.25221 2.93068C9.04083 3.17623 8.84584 3.43544 8.6685 3.7066C8.65032 3.73449 8.61689 3.74835 8.58431 3.7415C8.55173 3.73466 8.5267 3.70851 8.52128 3.67567ZM9.20927 11.2044C9.2368 10.8783 9.24263 10.5508 9.2267 10.224C9.225 10.1907 9.24393 10.1598 9.27435 10.1462C9.30477 10.1326 9.34042 10.1391 9.36409 10.1626C9.5985 10.3937 9.84811 10.6089 10.1113 10.8067C10.1251 10.817 10.1353 10.8315 10.1403 10.8481C10.3018 11.3889 10.395 11.9477 10.4176 12.5117C10.4205 12.5851 10.3321 12.6247 10.2793 12.5737C9.87231 12.18 9.51673 11.7363 9.22096 11.2534C9.21199 11.2387 9.20793 11.2215 9.20938 11.2044H9.20927ZM10.5031 9.29374C10.8112 9.40953 11.1267 9.50458 11.4476 9.57825C11.4645 9.5821 11.4797 9.59128 11.491 9.60442C11.8596 10.0343 12.1727 10.5087 12.423 11.0166C12.4555 11.0825 12.3908 11.1546 12.3218 11.1294C11.7899 10.935 11.2846 10.6746 10.8177 10.3542C10.8034 10.3444 10.7926 10.3302 10.787 10.3138C10.6793 10.0029 10.5509 9.69952 10.4027 9.40574C10.3876 9.37604 10.3924 9.34015 10.4146 9.31536C10.4368 9.29058 10.472 9.28199 10.5032 9.29374H10.5031Z" fill="white"/>
<path d="M21.5093 12.0201V5.93979C21.5093 5.5661 21.5818 5.23966 21.7269 4.96049C21.872 4.68132 22.0687 4.46369 22.3171 4.30762C22.5655 4.15155 22.8458 4.07351 23.1579 4.07351C23.6195 4.07351 23.9921 4.22079 24.2757 4.51535C24.5593 4.80991 24.7011 5.20559 24.7011 5.70239V12.0201H27.4247V5.83428C27.4247 5.30671 27.5675 4.88135 27.8533 4.55822C28.1391 4.23508 28.537 4.07351 29.0469 4.07351C29.4954 4.07351 29.8691 4.2142 30.168 4.49557C30.467 4.77694 30.6165 5.199 30.6165 5.76174V12.0201H33.4192V5.20779C33.4192 4.10868 33.1235 3.25907 32.5322 2.65896C31.9409 2.05885 31.1726 1.75879 30.2274 1.75879C29.4844 1.75879 28.8414 1.93355 28.2984 2.28306C27.7555 2.63258 27.3807 3.0975 27.1741 3.67783H27.0685C26.9059 3.08871 26.5805 2.62159 26.0925 2.27647C25.6045 1.93135 25.0132 1.75879 24.3186 1.75879C23.6327 1.75879 23.0436 1.93025 22.5512 2.27317C22.0588 2.61609 21.7071 3.08431 21.4961 3.67783H21.3774V1.89068H18.6999V12.0201H21.5093ZM40.2116 12.2179C41.236 12.2179 42.1208 11.9992 42.866 11.5617C43.6112 11.1243 44.186 10.5132 44.5905 9.72842C44.995 8.94366 45.1972 8.0325 45.1972 6.99494C45.1972 5.94859 44.995 5.03303 44.5905 4.24827C44.186 3.4635 43.6112 2.8524 42.866 2.41496C42.1208 1.97751 41.236 1.75879 40.2116 1.75879C39.1873 1.75879 38.3025 1.97751 37.5573 2.41496C36.8121 2.8524 36.2373 3.4635 35.8328 4.24827C35.4283 5.03303 35.2261 5.94859 35.2261 6.99494C35.2261 8.0325 35.4283 8.94366 35.8328 9.72842C36.2373 10.5132 36.8121 11.1243 37.5573 11.5617C38.3025 11.9992 39.1873 12.2179 40.2116 12.2179ZM40.2248 10.0417C39.7544 10.0417 39.3598 9.90867 39.0411 9.64269C38.7224 9.3767 38.4827 9.0129 38.3223 8.55127C38.1618 8.08965 38.0816 7.56428 38.0816 6.97515C38.0816 6.38603 38.1618 5.86066 38.3223 5.39903C38.4827 4.93741 38.7224 4.5725 39.0411 4.30432C39.3598 4.03614 39.7544 3.90205 40.2248 3.90205C40.6909 3.90205 41.0799 4.03614 41.3921 4.30432C41.7042 4.5725 41.9405 4.93741 42.101 5.39903C42.2615 5.86066 42.3417 6.38603 42.3417 6.97515C42.3417 7.56428 42.2615 8.08965 42.101 8.55127C41.9405 9.0129 41.7042 9.3767 41.3921 9.64269C41.0799 9.90867 40.6909 10.0417 40.2248 10.0417ZM49.8398 12.0201V6.16401C49.8442 5.72877 49.9266 5.35617 50.0871 5.04622C50.2476 4.73627 50.4718 4.49996 50.7598 4.3373C51.0477 4.17463 51.3808 4.09329 51.7589 4.09329C52.3216 4.09329 52.7634 4.26805 53.0844 4.61757C53.4053 4.96708 53.5636 5.45179 53.5592 6.07169V12.0201H56.3685V5.57049C56.3685 4.78353 56.2234 4.10538 55.9333 3.53605C55.6431 2.96671 55.2364 2.52816 54.7133 2.22041C54.1901 1.91266 53.5768 1.75879 52.8733 1.75879C52.1216 1.75879 51.4819 1.93135 50.9543 2.27647C50.4267 2.62159 50.0508 3.08871 49.8266 3.67783H49.7079V1.89068H47.0305V12.0201H49.8398ZM63.1557 12.2179C64.1801 12.2179 65.0648 11.9992 65.81 11.5617C66.5552 11.1243 67.1301 10.5132 67.5345 9.72842C67.939 8.94366 68.1412 8.0325 68.1412 6.99494C68.1412 5.94859 67.939 5.03303 67.5345 4.24827C67.1301 3.4635 66.5552 2.8524 65.81 2.41496C65.0648 1.97751 64.1801 1.75879 63.1557 1.75879C62.1313 1.75879 61.2465 1.97751 60.5013 2.41496C59.7561 2.8524 59.1813 3.4635 58.7768 4.24827C58.3724 5.03303 58.1701 5.94859 58.1701 6.99494C58.1701 8.0325 58.3724 8.94366 58.7768 9.72842C59.1813 10.5132 59.7561 11.1243 60.5013 11.5617C61.2465 11.9992 62.1313 12.2179 63.1557 12.2179ZM63.1689 10.0417C62.6985 10.0417 62.3039 9.90867 61.9851 9.64269C61.6664 9.3767 61.4268 9.0129 61.2663 8.55127C61.1059 8.08965 61.0256 7.56428 61.0256 6.97515C61.0256 6.38603 61.1059 5.86066 61.2663 5.39903C61.4268 4.93741 61.6664 4.5725 61.9851 4.30432C62.3039 4.03614 62.6985 3.90205 63.1689 3.90205C63.6349 3.90205 64.024 4.03614 64.3361 4.30432C64.6483 4.5725 64.8846 4.93741 65.0451 5.39903C65.2055 5.86066 65.2858 6.38603 65.2858 6.97515C65.2858 7.56428 65.2055 8.08965 65.0451 8.55127C64.8846 9.0129 64.6483 9.3767 64.3361 9.64269C64.024 9.90867 63.6349 10.0417 63.1689 10.0417Z" fill="white"/>
</svg>
